<?xml version="1.0" standalone="no"?>
<!DOCTYPE svg PUBLIC "-//W3C//DTD SVG 20010904//EN"
 "http://www.w3.org/TR/2001/REC-SVG-20010904/DTD/svg10.dtd">
<svg version="1.0" xmlns="http://www.w3.org/2000/svg"
 width="526.000000pt" height="526.000000pt" viewBox="0 0 526.000000 526.000000"
 preserveAspectRatio="xMidYMid meet">
<metadata>
Created by potrace 1.14, written by Peter Selinger 2001-2017
</metadata>
<g transform="translate(0.000000,526.000000) scale(0.100000,-0.100000)"
fill="#000000" stroke="none">
<path d="M3088 4565 c-4 -4 -33 -9 -113 -20 -108 -14 -121 -16 -145 -20 -43
-8 -178 -27 -280 -40 -25 -3 -52 -8 -60 -10 -8 -2 -37 -6 -65 -10 -27 -3 -75
-10 -105 -15 -30 -5 -77 -12 -105 -15 -27 -3 -61 -8 -75 -10 -14 -2 -43 -7
-65 -10 -23 -3 -50 -7 -60 -9 -11 -2 -45 -7 -75 -11 -30 -4 -62 -9 -71 -10 -9
-2 -40 -6 -69 -10 -29 -4 -62 -9 -74 -11 -12 -2 -41 -7 -66 -10 -25 -3 -56 -7
-70 -9 -14 -3 -70 -11 -124 -19 -122 -18 -209 -58 -276 -127 -57 -58 -85 -113
-149 -289 -27 -74 -97 -268 -155 -430 -59 -162 -114 -313 -122 -334 -67 -174
-226 -626 -233 -659 -24 -131 21 -273 121 -379 7 -7 42 -47 78 -88 36 -41 67
-77 70 -80 3 -3 34 -39 70 -80 36 -41 67 -77 70 -80 3 -3 30 -34 60 -70 30
-35 64 -74 75 -86 11 -11 31 -34 45 -50 39 -46 154 -178 160 -184 3 -3 32 -36
65 -75 33 -38 64 -75 70 -81 5 -6 35 -39 65 -74 295 -341 321 -369 387 -408
94 -55 204 -69 348 -43 33 6 74 13 90 15 108 18 175 28 205 32 19 2 46 6 60 9
41 8 141 24 451 72 l107 16 183 -77 c221 -94 232 -98 289 -123 25 -11 134 -57
243 -103 176 -74 199 -82 213 -68 13 13 9 26 -36 122 -27 59 -50 109 -50 111
0 1 -27 58 -59 126 l-59 122 63 22 c111 37 202 118 247 220 l22 51 129 48
c111 43 128 52 125 70 -3 22 -16 30 -114 74 l-61 27 79 215 c43 118 94 258
112 310 19 52 66 183 106 290 190 516 195 536 178 645 -13 85 -58 171 -134
255 -37 41 -98 109 -135 150 -37 41 -76 84 -86 96 -20 23 -142 161 -158 178
-5 6 -44 49 -85 96 -41 47 -77 87 -80 90 -3 3 -41 45 -85 95 -75 84 -122 137
-170 190 -49 55 -151 170 -165 185 -102 116 -150 169 -178 194 -40 37 -112 77
-164 93 -34 10 -201 16 -210 8z"/>
</g>
</svg>
